[center][img]http://img151.imageshack.us/img151/7899/e86f9cea7196a0baa06cb9a.jpg[/img][/center]

[center]Format                           : AVI
Format/Info                      : Audio Video Interleave
Format profile                   : OpenDML
File size                        : 1.21 GiB
Duration                         : 1h 20mn
Overall bit rate                 : 2 143 Kbps
Writing application              : Lavf52.47.0

Video
ID                               : 0
Format                           : xvid
Codec ID                         : xvid
Duration                         : 1h 20mn
Bit rate                         : 2 000 Kbps
Width                            : 640 pixels
Height                           : 360 pixels
Display aspect ratio             : 16:9
Frame rate                       : 25.000 fps
Bits/(Pixel*Frame)               : 0.347
Stream size                      : 1.13 GiB (93%)

Audio
ID                               : 1
Format                           : MPEG Audio
Format version                   : Version 1
Format profile                   : Layer 3
Mode                             : Joint stereo
Mode extension                   : MS Stereo
Codec ID                         : 55
Codec ID/Hint                    : MP3
Duration                         : 16mn 8s
Bit rate mode                    : Constant
Bit rate                         : 128 Kbps
Channel(s)                       : 2 channels
Sampling rate                    : 44.1 KHz
Stream size                      : 14.8 MiB (1%)
Alignment                        : Aligned on interleaves
Interleave, duration             : 131 ms (3.27 video frames)

[/center]


[center][img]http://img225.imageshack.us/img225/7443/vlcsnap2011011417h24m13.png[/img][/center]
[center][img]http://img402.imageshack.us/img402/1655/vlcsnap2011011417h24m02.png[/img][/center]
[center][img]http://img34.imageshack.us/img34/1185/vlcsnap2011011417h24m23.png[/img][/center]




[center]Video and audio source  WWE Friday Night Smackdown 2011 01 14 HDTV x264-RUDOS - Thanks [/center]




[center][img]http://signatures.mylivesignature.com/54488/364/63C91F8D3F952BFA8B83650965539EC2.png[/img][/center]